PathFileType	4	(X/Y/Z)	s03c0001.trc
DataRate	CameraRate	NumFrames	NumMarkers	Units	OrigDataRate	OrigDataStartFrame	OrigNumFrames
200	200	4	49	mm	200	1750	2000
Frame#	Time	racr			lacr			c7			jug			rlel			rdr			llel			ldr			s2			lic			ric			lasi			rasi			rpsi			lpsi			rgt			lgt			rth1			rth2			rth3			rth4			rlfc			rmfc			rsh1			rsh2			rsh3			rsh4			rlmal			rmmal			rcal			rtoe			rmt5			rmt1			lth1			lth2			lth4			lth3			llfc			lmfc			lsh1			lsh2			lsh3			lsh4			llmal			lmmal			lcal			ltoe			lmt1			lmt5			
		X1	Y1	Z1	X2	Y2	Z2	X3	Y3	Z3	X4	Y4	Z4	X5	Y5	Z5	X6	Y6	Z6	X7	Y7	Z7	X8	Y8	Z8	X9	Y9	Z9	X10	Y10	Z10	X11	Y11	Z11	X12	Y12	Z12	X13	Y13	Z13	X14	Y14	Z14	X15	Y15	Z15	X16	Y16	Z16	X17	Y17	Z17	X18	Y18	Z18	X19	Y19	Z19	X20	Y20	Z20	X21	Y21	Z21	X22	Y22	Z22	X23	Y23	Z23	X24	Y24	Z24	X25	Y25	Z25	X26	Y26	Z26	X27	Y27	Z27	X28	Y28	Z28	X29	Y29	Z29	X30	Y30	Z30	X31	Y31	Z31	X32	Y32	Z32	X33	Y33	Z33	X34	Y34	Z34	X35	Y35	Z35	X36	Y36	Z36	X37	Y37	Z37	X38	Y38	Z38	X39	Y39	Z39	X40	Y40	Z40	X41	Y41	Z41	X42	Y42	Z42	X43	Y43	Z43	X44	Y44	Z44	X45	Y45	Z45	X46	Y46	Z46	X47	Y47	Z47	X48	Y48	Z48	X49	Y49	Z49	
1750	8.7500	268.621552	1573.144775	582.604187	263.907166	1589.964722	201.125046	201.860092	1608.145142	394.937286	369.226105	1557.108398	393.330963	193.809753	1301.901855	691.798279	287.445190	1123.211792	888.621948	190.257492	1318.632935	95.007950	272.244873	1129.012451	-111.278015	163.486938	1068.255859	373.472198	301.054443	1165.976196	194.139786	292.468323	1151.759644	565.944641	362.384613	1103.750854	237.373413	362.191864	1100.087891	519.483826	165.094910	1108.677246	422.890991	169.477478	1117.323486	340.124084	273.404083	1009.093140	560.925598	287.203156	1015.544434	186.858231	285.863129	870.263855	576.164551	316.315277	786.574463	570.372070	305.966705	703.431824	555.846008	352.373108	791.969910	565.800049	299.701721	577.307434	524.035583	330.748840	556.746460	417.749939	244.429810	412.925690	552.191467	255.292419	323.756470	547.812256	219.712234	243.453674	542.083801	289.475311	320.243134	530.230896	209.209091	104.457458	530.822998	249.087891	121.934288	449.815735	165.340485	56.233711	483.225647	468.709534	90.470779	502.943512	353.625580	43.369423	563.313171	378.931519	80.564903	453.720184	298.176239	865.765076	174.236557	321.181213	782.545471	181.743683	357.267365	784.494995	183.896729	299.364288	698.085144	195.390396	312.662750	576.869385	220.424637	333.671509	558.953125	334.067688	252.853058	413.555695	184.559570	265.264496	329.324524	192.886658	230.088074	244.861099	196.308594	299.509644	325.149170	211.203293	221.003113	110.700272	206.033066	259.121826	124.958267	292.773956	172.659851	55.132828	258.017151	479.603485	92.320053	234.381531	389.305878	73.221581	286.072540	358.208954	50.571369	172.356827	
1751	8.7550	268.647308	1573.140869	582.587585	263.954376	1589.953491	201.126816	201.851669	1608.154297	394.992676	369.268768	1557.127563	393.333954	193.850327	1301.926147	691.831360	287.500824	1123.246460	888.666748	190.306870	1318.627930	95.010063	272.289520	1129.038940	-111.276199	163.549011	1068.251709	373.471832	301.106567	1165.985107	194.153793	292.494659	1151.758789	565.943420	362.399750	1103.735840	237.381714	362.216431	1100.078857	519.484802	165.137207	1108.682739	422.913818	169.509247	1117.335938	340.131989	273.422119	1009.085022	560.927673	287.230255	1015.538391	186.867783	285.881134	870.269531	576.178894	316.321350	786.578064	570.383179	305.971466	703.438110	555.846252	352.402466	791.954407	565.800598	299.707947	577.291138	524.044128	330.748962	556.758484	417.745422	244.430588	412.921814	552.195801	255.321182	323.746429	547.814758	219.727081	243.457382	542.083618	289.489838	320.243713	530.251770	209.193832	104.449371	530.821838	249.097916	121.923714	449.812988	165.340485	56.233711	483.225647	468.711151	90.463341	502.945465	353.605621	43.372517	563.310303	378.938354	80.569611	453.710754	298.183105	865.767761	174.223907	321.208344	782.551880	181.755417	357.267456	784.496094	183.895157	299.395569	698.089417	195.392258	312.684174	576.871582	220.423203	333.716034	558.974976	334.068878	252.848984	413.572601	184.563644	265.278778	329.308319	192.888885	230.082321	244.870377	196.328568	299.523132	325.156097	211.197739	221.013321	110.709114	206.026627	259.124512	124.964249	292.796204	172.644440	55.147243	258.018402	479.623993	92.088074	234.316925	389.297302	73.217491	286.060150	358.208923	50.571369	172.356827	
1752	8.7600	268.672272	1573.197754	582.601318	263.980804	1589.963257	201.136032	201.896057	1608.150269	394.981415	369.295197	1557.143311	393.342682	193.900085	1301.910889	691.844849	287.558350	1123.279907	888.706177	190.365967	1318.632690	94.993996	272.354401	1129.037964	-111.283867	163.561050	1068.260742	373.489044	301.131836	1166.002808	194.167648	292.525482	1151.771729	565.966797	362.441345	1103.741455	237.394073	362.251465	1100.079346	519.483154	165.172379	1108.678711	422.926270	169.527939	1117.342163	340.147064	273.457733	1009.085938	560.947021	287.252502	1015.537842	186.866302	285.895325	870.258606	576.180481	316.338348	786.583252	570.399109	305.975128	703.433289	555.844055	352.429321	791.934387	565.779968	299.712067	577.304993	524.041382	330.748993	556.739319	417.744720	244.452240	412.923309	552.191772	255.316483	323.752136	547.811218	219.721680	243.465378	542.088806	289.497009	320.236786	530.251221	209.193542	104.460022	530.826355	249.093842	121.934212	449.800659	165.346069	56.215256	483.226562	468.684753	90.483765	502.933228	353.661957	43.369217	563.316650	378.935333	80.573738	453.717072	298.185791	865.759399	174.245560	321.215332	782.536011	181.776108	357.304443	784.489563	183.919769	299.392639	698.091614	195.408203	312.682159	576.868713	220.420517	333.729797	558.964722	334.092407	252.854050	413.568848	184.562454	265.276398	329.317505	192.923157	230.091034	244.887650	196.330780	299.528564	325.151367	211.200150	221.007309	110.694565	206.019806	259.136475	124.970009	292.795502	172.628693	55.160347	258.021332	479.621552	92.087006	234.312469	389.299103	73.219849	286.062805	358.189331	50.560707	172.354919	
1753	8.7650	268.685486	1573.226196	582.620117	264.030518	1589.973877	201.135727	201.917679	1608.161377	394.986176	369.330139	1557.135132	393.351685	193.917953	1301.960327	691.890198	287.599640	1123.312012	888.750122	190.428146	1318.632202	94.982910	272.415802	1129.060425	-111.284363	163.573166	1068.282227	373.503204	301.162567	1166.007324	194.168060	292.600342	1151.771484	565.964111	362.457886	1103.754272	237.382294	362.273438	1100.078613	519.478271	165.232315	1108.677368	422.993927	169.553391	1117.343750	340.149872	273.478699	1009.086853	560.955566	287.277893	1015.539978	186.867706	285.932281	870.266235	576.158203	316.351288	786.567017	570.387695	305.995972	703.431396	555.854492	352.434082	791.944458	565.794067	299.713013	577.307007	524.048828	330.760742	556.742004	417.735596	244.459824	412.925781	552.200928	255.315536	323.748932	547.821045	219.721146	243.469360	542.077026	289.499634	320.256561	530.239197	209.186020	104.478859	530.816833	249.072754	121.933159	449.796356	165.340469	56.233707	483.225647	468.707794	90.469139	502.933105	353.625580	43.369434	563.313171	378.941681	80.560822	453.709137	298.210724	865.755432	174.254105	321.237061	782.542236	181.775116	357.302399	784.495422	183.921692	299.421234	698.086914	195.416489	312.689423	576.863159	220.452850	333.735870	558.981079	334.098419	252.853287	413.576050	184.572601	265.274872	329.332367	192.895508	230.090637	244.888016	196.331039	299.531281	325.156342	211.192703	221.026688	110.704445	206.036072	259.122620	124.959106	292.790680	172.635925	55.157772	258.016083	479.637543	92.320221	234.389236	389.312195	73.206413	286.067474	358.233765	50.559692	172.351074	
